<svg width="33" height="33" viewBox="0 0 33 33" fill="none" xmlns="http://www.w3.org/2000/svg">
<g opacity="0.54">
<path fill-rule="evenodd" clip-rule="evenodd" d="M16.5 0C7.3873 0 0 7.3873 0 16.5C0 25.6127 7.3873 33 16.5 33C25.6127 33 33 25.6127 33 16.5C33 7.3873 25.6127 0 16.5 0ZM7.50004 12.8182C7.50004 9.88504 9.88504 7.50004 12.8182 7.50004H20.1819C23.115 7.50004 25.5 9.88504 25.5 12.8182V20.1819C25.5 23.115 23.115 25.5 20.1819 25.5H12.8182C9.88504 25.5 7.50004 23.115 7.50004 20.1819V12.8182ZM22.2273 11.591C22.2273 11.141 21.8591 10.7728 21.4091 10.7728C20.9591 10.7728 20.591 11.141 20.591 11.591C20.591 12.0409 20.9591 12.4091 21.4091 12.4091C21.8591 12.4091 22.2273 12.0409 22.2273 11.591ZM21 16.5C21 14.0169 18.9832 12 16.5 12C14.0169 12 12 14.0169 12 16.5C12 18.9832 14.0169 21 16.5 21C18.9832 21 21 18.9832 21 16.5ZM12.8182 16.5C12.8182 14.471 14.471 12.8182 16.5 12.8182C18.5291 12.8182 20.1819 14.471 20.1819 16.5C20.1819 18.5291 18.5291 20.1819 16.5 20.1819C14.471 20.1819 12.8182 18.5291 12.8182 16.5Z" fill="white"/>
</g>
</svg>
