<svg width="147" height="48" viewBox="0 0 147 48" fill="none" xmlns="http://www.w3.org/2000/svg">
<path d="M146.699 41.5044C146.699 45.0756 143.803 48 140.204 48H6.49561C2.89631 48 0 45.0756 0 41.5044V6.49561C0 2.89631 2.89631 0 6.49561 0H140.232C143.803 0 146.728 2.89631 146.728 6.49561V41.5044H146.699Z" fill="black"/>
<path d="M10.9946 9.25146V25.4764V41.7295L27.3883 25.4764L10.9946 9.25146Z" fill="url(#paint0_linear)"/>
<path d="M31.8031 21.1177L25.1669 17.2935L10.9946 9.11072V9.25132L27.3883 25.4763L31.8031 21.1177Z" fill="url(#paint1_linear)"/>
<path d="M10.9946 41.7294V41.8419L25.1669 33.6591L31.8031 29.863L27.3883 25.4763L10.9946 41.7294Z" fill="url(#paint2_linear)"/>
<path d="M31.8033 21.1179L27.3885 25.4764L31.8033 29.8631L39.3393 25.4764L31.8033 21.1179Z" fill="url(#paint3_linear)"/>
<path d="M114.165 31.8314C113.547 31.8314 112.984 31.7189 112.478 31.4939C111.972 31.269 111.55 30.9315 111.184 30.4535H111.072C111.128 31.0159 111.184 31.5221 111.184 32.0282V35.9087H109.75V22.2145H110.903L111.1 23.508H111.156C111.522 23.0018 111.944 22.6082 112.45 22.3832C112.928 22.1583 113.49 22.0458 114.137 22.0458C115.402 22.0458 116.358 22.4676 117.033 23.3393C117.708 24.1829 118.046 25.392 118.046 26.9386C118.046 28.4851 117.708 29.6943 117.005 30.566C116.358 31.4096 115.402 31.8314 114.165 31.8314ZM113.968 23.2549C113.012 23.2549 112.309 23.5361 111.859 24.0704C111.438 24.6047 111.213 25.4482 111.184 26.6293V26.9386C111.184 28.2602 111.409 29.2163 111.859 29.7786C112.309 30.341 113.012 30.6503 113.996 30.6503C114.812 30.6503 115.459 30.3129 115.909 29.6662C116.358 29.0194 116.612 28.0915 116.612 26.9386C116.612 25.7576 116.387 24.8577 115.909 24.2391C115.459 23.5642 114.812 23.2549 113.968 23.2549Z" fill="#F9F9F9"/>
<path d="M121.42 31.6625H119.986V18.2495H121.42V31.6625Z" fill="#F9F9F9"/>
<path d="M129.631 31.6626L129.35 30.3129H129.294C128.816 30.9034 128.366 31.2971 127.888 31.522C127.41 31.7189 126.847 31.8314 126.144 31.8314C125.216 31.8314 124.485 31.5783 123.951 31.1003C123.417 30.6222 123.164 29.9192 123.164 29.0475C123.164 27.1354 124.682 26.1512 127.747 26.0387L129.35 25.9825V25.392C129.35 24.6609 129.181 24.0985 128.872 23.7611C128.563 23.3955 128.028 23.2268 127.354 23.2268C126.566 23.2268 125.666 23.4799 124.682 23.9579L124.232 22.8612C124.71 22.6082 125.216 22.4113 125.751 22.2707C126.313 22.1301 126.847 22.0458 127.41 22.0458C128.535 22.0458 129.378 22.2989 129.912 22.805C130.447 23.3112 130.728 24.0985 130.728 25.2233V31.6626H129.631ZM126.397 30.6503C127.297 30.6503 128 30.3973 128.506 29.9192C129.013 29.4412 129.266 28.7382 129.266 27.8665V27.0229L127.832 27.0792C126.707 27.1073 125.863 27.3041 125.357 27.6134C124.851 27.9228 124.598 28.4008 124.598 29.0757C124.598 29.5818 124.767 29.9755 125.076 30.2567C125.413 30.5379 125.835 30.6503 126.397 30.6503Z" fill="#F9F9F9"/>
<path d="M131.543 22.2147H133.09L135.171 27.6137C135.621 28.8509 135.902 29.7226 136.014 30.285H136.07C136.155 30.0038 136.295 29.4977 136.548 28.7666C136.773 28.0636 137.561 25.8703 138.882 22.2147H140.429L136.38 32.9845C135.986 34.053 135.508 34.8123 134.974 35.2622C134.44 35.7121 133.765 35.937 133.005 35.937C132.556 35.937 132.134 35.8808 131.712 35.7964V34.6435C132.021 34.6998 132.387 34.756 132.78 34.756C133.765 34.756 134.468 34.1936 134.889 33.097L135.424 31.7472L131.543 22.2147Z" fill="#F9F9F9"/>
<path d="M87.6488 23.0865C88.0987 23.452 89.0548 24.2394 89.0548 25.7578C89.0548 27.22 88.2112 27.923 87.3957 28.5698C87.1426 28.8228 86.8333 29.104 86.8333 29.5258C86.8333 29.9476 87.1426 30.2007 87.3395 30.3694L88.0425 30.9318C88.9142 31.6629 89.7015 32.3378 89.7015 33.6875C89.7015 35.5434 87.9019 37.4274 84.4994 37.4274C81.6312 37.4274 80.2534 36.0777 80.2534 34.5873C80.2534 33.8843 80.6189 32.872 81.7718 32.1691C83.0091 31.4098 84.6681 31.3255 85.5398 31.2692C85.2586 30.9037 84.9493 30.5381 84.9493 29.9195C84.9493 29.5821 85.0618 29.3852 85.1462 29.1603C84.9212 29.1884 84.7244 29.1884 84.4994 29.1884C82.4186 29.1884 81.2094 27.6137 81.2094 26.0952C81.2094 25.1954 81.6312 24.1831 82.4748 23.452C83.5996 22.5241 84.9493 22.3553 86.0179 22.3553H90.0952L88.8298 23.0583H87.6488V23.0865ZM86.2428 31.8597C86.0741 31.8316 85.9897 31.8316 85.7929 31.8316C85.6242 31.8316 84.5556 31.8597 83.7121 32.1409C83.2903 32.3097 82.0249 32.7596 82.0249 34.1655C82.0249 35.5715 83.4027 36.5838 85.5117 36.5838C87.3957 36.5838 88.408 35.684 88.408 34.4467C88.408 33.4626 87.7613 32.9283 86.2428 31.8597ZM86.8333 28.1198C87.2832 27.6699 87.3395 27.0232 87.3395 26.6858C87.3395 25.2517 86.4959 23.0583 84.8368 23.0583C84.3307 23.0583 83.7683 23.3114 83.459 23.7051C83.1215 24.1269 83.0372 24.6611 83.0372 25.1673C83.0372 26.4889 83.7964 28.6822 85.5117 28.6822C85.9616 28.6822 86.4959 28.4292 86.8333 28.1198Z" fill="#F9F9F9"/>
<path d="M75.2199 31.5504C72.0705 31.5504 70.4114 29.104 70.4114 26.8825C70.4114 24.2955 72.5204 22.0741 75.5292 22.0741C78.4255 22.0741 80.2533 24.3518 80.2533 26.7419C80.2251 29.0759 78.4255 31.5504 75.2199 31.5504ZM77.6663 29.9476C78.1443 29.3289 78.2568 28.5135 78.2568 27.7542C78.2568 26.0108 77.4413 22.6927 74.9668 22.6927C74.3201 22.6927 73.6733 22.9458 73.1953 23.3676C72.436 24.0706 72.2954 24.9142 72.2954 25.7859C72.2954 27.7261 73.2515 30.9599 75.6417 30.9599C76.429 30.9599 77.2164 30.5943 77.6663 29.9476Z" fill="#F9F9F9"/>
<path d="M64.5068 31.5504C61.3574 31.5504 59.6984 29.104 59.6984 26.8825C59.6984 24.2955 61.8073 22.0741 64.8161 22.0741C67.7124 22.0741 69.5402 24.3518 69.5402 26.7419C69.5121 29.0759 67.7405 31.5504 64.5068 31.5504ZM66.9813 29.9476C67.4593 29.3289 67.5718 28.5135 67.5718 27.7542C67.5718 26.0108 66.7564 22.6927 64.2818 22.6927C63.6351 22.6927 62.9883 22.9458 62.5103 23.3676C61.7511 24.0706 61.6105 24.9142 61.6105 25.7859C61.6105 27.7261 62.5666 30.9599 64.9567 30.9599C65.7441 30.9599 66.5314 30.5943 66.9813 29.9476Z" fill="#F9F9F9"/>
<path d="M58.1794 31.2403L55.3393 31.8871C54.1864 32.0558 53.146 32.2245 52.0775 32.2245C46.5941 32.2245 44.5133 28.2034 44.5133 25.054C44.5133 21.2017 47.4659 17.6305 52.5274 17.6305C53.5959 17.6305 54.6363 17.7992 55.5643 18.0523C57.0546 18.4741 57.7576 18.9802 58.1794 19.2895L56.5203 20.8642L55.8173 21.033L56.3235 20.2456C55.6486 19.5989 54.4114 18.3897 52.0775 18.3897C48.9562 18.3897 46.5941 20.7799 46.5941 24.2386C46.5941 27.9785 49.2936 31.4934 53.624 31.4934C54.8894 31.4934 55.5362 31.2403 56.1548 30.9873V27.7535L53.146 27.9222L54.7207 27.0787H58.9386L58.4325 27.5848C58.2919 27.6973 58.2637 27.7535 58.2356 27.8941C58.2075 28.0628 58.2075 28.6533 58.2075 28.8502V31.2403H58.1794Z" fill="#F9F9F9"/>
<path d="M93.9196 30.6783C93.2729 30.622 93.1323 30.5096 93.1323 29.7222V29.4973V18.5025C93.1323 18.4463 93.1323 18.4182 93.1323 18.3619C93.2167 17.6589 93.4135 17.5465 94.0321 17.1809H91.1921L89.7017 17.8839H91.2202V29.4691V30.1159C91.2202 30.5096 91.1358 30.5658 90.6859 31.1563H94.2008L94.932 30.7345C94.5945 30.7345 94.2571 30.7064 93.9196 30.6783Z" fill="#F9F9F9"/>
<path d="M101.99 30.8471C101.765 30.9596 101.568 31.1002 101.343 31.2126C100.696 31.522 100.022 31.5782 99.4311 31.5782C98.8124 31.5782 97.8282 31.5501 96.8159 30.819C95.41 29.8348 94.8195 28.1476 94.8195 26.6573C94.8195 23.5923 97.294 22.1019 99.3186 22.1019C100.022 22.1019 100.753 22.2706 101.343 22.6643C102.327 23.3111 102.58 24.1547 102.721 24.6046L98.0813 26.4886L96.5629 26.601C97.0409 29.1037 98.7562 30.5659 100.612 30.5659C101.624 30.5659 102.355 30.2003 103.002 29.891L101.99 30.8471ZM100.162 24.9982C100.528 24.8576 100.725 24.7452 100.725 24.464C100.725 23.6766 99.8247 22.7768 98.7843 22.7768C97.997 22.7768 96.5066 23.3954 96.5066 25.5044C96.5066 25.8418 96.5347 26.2074 96.5629 26.5448L100.162 24.9982Z" fill="#F9F9F9"/>
<path d="M103.902 22.2425V23.536H103.733V22.2425H103.311V22.1019H104.324V22.2425H103.902Z" fill="#F9F9F9"/>
<path d="M105.673 23.5361V22.2145L105.28 23.5361H105.167L104.774 22.2145V23.5361H104.633V22.1021H104.886L105.252 23.255L105.617 22.1021H105.87V23.5361H105.673Z" fill="#F9F9F9"/>
<path d="M48.45 13.7796H47.4658C47.4658 13.639 47.3815 13.2735 47.1846 12.6267H45.7505C45.5537 13.2454 45.4693 13.639 45.4693 13.7796H44.5414C44.5414 13.6953 44.7945 13.0485 45.2725 11.8113C45.7505 10.574 46.0036 9.89914 46.0036 9.75854H47.1565C47.1565 9.87102 47.3815 10.5459 47.8032 11.755C48.2532 12.9923 48.45 13.6672 48.45 13.7796ZM47.044 12.0362C46.7066 10.9677 46.5097 10.4053 46.5097 10.3209H46.4535C46.4535 10.4053 46.2848 10.9677 45.9192 12.0362H47.044Z" fill="#F9F9FA"/>
<path d="M52.4433 13.7791H51.6841C51.6841 13.6947 51.4029 13.2448 50.8405 12.4575C50.25 11.6139 49.9125 11.0234 49.8282 10.714H49.7719C49.8282 11.164 49.8563 11.5576 49.8563 11.9232C49.8563 12.4293 49.8844 13.048 49.9125 13.7791H49.1533C49.1814 13.1323 49.2096 12.4293 49.2096 11.6701C49.2096 10.9109 49.1814 10.2922 49.1533 9.75798H50.0813C50.0813 9.87046 50.3343 10.2922 50.8405 11.0515C51.3748 11.8669 51.6841 12.4012 51.7684 12.6824H51.8247C51.7684 12.2325 51.7403 11.8107 51.7403 11.4451C51.7403 10.8828 51.7122 10.3204 51.6841 9.72986H52.4433C52.4152 10.236 52.3871 10.8828 52.3871 11.642C52.3871 12.4575 52.4152 13.1323 52.4433 13.7791Z" fill="#F9F9FA"/>
<path d="M56.8859 11.6139C56.8859 12.2044 56.689 12.7105 56.3235 13.1323C55.9579 13.5541 55.4236 13.7791 54.7488 13.7791C54.4395 13.7791 54.0177 13.7791 53.4834 13.7509C53.5115 13.1323 53.5115 12.4293 53.5115 11.642C53.5115 10.8828 53.5115 10.2641 53.4834 9.72986H54.0177C54.102 9.72986 54.2426 9.72986 54.4113 9.72986C54.5801 9.72986 54.6925 9.72986 54.7488 9.72986C55.4799 9.72986 56.0142 9.92669 56.3516 10.2922C56.7171 10.6578 56.8859 11.1077 56.8859 11.6139ZM56.0704 11.7545C56.0704 11.3608 55.9579 11.0234 55.733 10.7703C55.508 10.4891 55.1425 10.3766 54.6925 10.3766C54.6082 10.3766 54.4957 10.3766 54.327 10.4047C54.3551 10.8265 54.3551 11.2483 54.3551 11.6982C54.3551 12.1763 54.3551 12.6824 54.3832 13.1604C54.5238 13.1886 54.6363 13.1886 54.7769 13.1886C55.2268 13.1886 55.5361 13.048 55.7611 12.7668C55.9579 12.4856 56.0704 12.1481 56.0704 11.7545Z" fill="#F9F9FA"/>
<path d="M61.0194 13.7787H60.1196C59.8947 13.0476 59.6978 12.5976 59.5572 12.4289C59.4166 12.2602 59.2198 12.1758 58.9386 12.1758C58.8261 12.1758 58.7136 12.1758 58.6012 12.1758C58.6012 12.7101 58.6012 13.2444 58.6293 13.7787H57.7857C57.8138 13.16 57.8138 12.457 57.8138 11.6697C57.8138 10.9105 57.8138 10.2918 57.7857 9.75757H58.32C58.3762 9.75757 58.5168 9.75757 58.7137 9.75757C58.9105 9.75757 59.0792 9.75757 59.2479 9.75757C60.204 9.75757 60.6539 10.0669 60.6539 10.7136C60.6539 11.2198 60.3727 11.5853 59.8384 11.7822V11.8384C60.0353 11.8947 60.2321 12.0634 60.3727 12.3164C60.5414 12.5695 60.7383 13.0757 61.0194 13.7787ZM59.8665 10.9386C59.8665 10.5168 59.6135 10.32 59.0792 10.32C58.8824 10.32 58.7137 10.3481 58.5731 10.3762C58.6012 10.6855 58.6012 11.1073 58.6012 11.6135C58.7136 11.6135 58.798 11.6135 58.8824 11.6135C59.5291 11.6135 59.8665 11.3885 59.8665 10.9386Z" fill="#F9F9FA"/>
<path d="M65.4345 11.6979C65.4345 12.3166 65.2377 12.8508 64.844 13.2726C64.4504 13.6944 63.9723 13.8913 63.4099 13.8913C62.8757 13.8913 62.4257 13.6944 62.0602 13.3289C61.6946 12.9352 61.4978 12.4572 61.4978 11.8667C61.4978 11.248 61.6946 10.7138 62.0883 10.292C62.482 9.87018 62.96 9.67334 63.5224 9.67334C64.0567 9.67334 64.5066 9.87018 64.8721 10.2357C65.2377 10.6294 65.4345 11.1074 65.4345 11.6979ZM64.5909 11.7823C64.5909 11.3605 64.4785 10.995 64.2535 10.7419C64.0286 10.4888 63.7755 10.3482 63.4381 10.3482C63.1287 10.3482 62.8757 10.4888 62.6788 10.7419C62.482 11.0231 62.3695 11.3605 62.3695 11.7542C62.3695 12.176 62.482 12.5415 62.7069 12.7946C62.9319 13.0758 63.185 13.1883 63.5224 13.1883C63.8317 13.1883 64.0848 13.0477 64.2816 12.7946C64.4785 12.5415 64.5909 12.176 64.5909 11.7823Z" fill="#F9F9FA"/>
<path d="M67.1775 13.7787H66.3058C66.334 13.1319 66.334 12.4289 66.334 11.6697C66.334 10.9105 66.334 10.2918 66.3058 9.75757H67.1775C67.1494 10.2637 67.1494 10.9105 67.1494 11.6697C67.1213 12.457 67.1494 13.16 67.1775 13.7787Z" fill="#F9F9FA"/>
<path d="M71.6487 11.6139C71.6487 12.2044 71.4518 12.7105 71.0863 13.1323C70.7207 13.5541 70.1865 13.7791 69.5116 13.7791C69.2023 13.7791 68.7805 13.7791 68.2462 13.7509C68.2743 13.1323 68.2743 12.4293 68.2743 11.642C68.2743 10.8828 68.2743 10.2641 68.2462 9.72986H68.7805C68.8648 9.72986 69.0054 9.72986 69.1742 9.72986C69.3429 9.72986 69.4554 9.72986 69.5116 9.72986C70.2427 9.72986 70.777 9.92669 71.1144 10.2922C71.48 10.6578 71.6487 11.1077 71.6487 11.6139ZM70.8051 11.7545C70.8051 11.3608 70.6926 11.0234 70.4677 10.7703C70.2427 10.4891 69.8771 10.3766 69.4272 10.3766C69.3429 10.3766 69.2304 10.3766 69.0617 10.4047C69.0898 10.8265 69.0898 11.2483 69.0898 11.6982C69.0898 12.1763 69.0898 12.6824 69.1179 13.1604C69.2585 13.1886 69.371 13.1886 69.5116 13.1886C69.9615 13.1886 70.2708 13.048 70.4958 12.7668C70.6926 12.4856 70.8051 12.1481 70.8051 11.7545Z" fill="#F9F9FA"/>
<path d="M77.5541 13.7787H76.5699C76.5699 13.6381 76.4856 13.2725 76.2887 12.6258H74.8547C74.6578 13.2444 74.5735 13.6381 74.5735 13.7787H73.6455C73.6455 13.6943 73.8986 13.0476 74.3766 11.8103C74.8546 10.573 75.1077 9.89817 75.1077 9.75757H76.2606C76.2606 9.87005 76.4856 10.5449 76.9074 11.7541C77.3573 12.9913 77.5541 13.6662 77.5541 13.7787ZM76.1481 12.0352C75.8107 10.9667 75.6139 10.4043 75.6139 10.32H75.5576C75.5576 10.4043 75.3889 10.9667 75.0234 12.0352H76.1481Z" fill="#F9F9FA"/>
<path d="M81.1532 10.7984C81.1532 11.2764 80.9845 11.642 80.6189 11.8951C80.2534 12.12 79.8034 12.2325 79.2692 12.2325C79.1848 12.2325 79.1005 12.2325 79.0723 12.2325C79.0723 12.6262 79.0723 13.1323 79.1005 13.7509H78.2288C78.2569 13.1604 78.2569 12.4575 78.2569 11.642C78.2569 10.9109 78.2569 10.2641 78.2288 9.72986H78.763C78.8474 9.72986 78.988 9.72986 79.2129 9.72986C79.4379 9.72986 79.6066 9.72986 79.7753 9.72986C80.169 9.72986 80.5064 9.81422 80.7595 9.98293C81.0126 10.1798 81.1532 10.461 81.1532 10.7984ZM80.3658 10.9671C80.3658 10.5172 80.0846 10.3204 79.4941 10.3204C79.3535 10.3204 79.1848 10.3485 79.0442 10.3766C79.0723 10.7703 79.0723 11.1921 79.0723 11.6982C79.1286 11.6982 79.1848 11.6982 79.2411 11.6982C80.0003 11.6982 80.3658 11.4451 80.3658 10.9671Z" fill="#F9F9FA"/>
<path d="M84.8646 10.7984C84.8646 11.2764 84.6959 11.642 84.3303 11.8951C83.9648 12.12 83.5149 12.2325 82.9806 12.2325C82.8963 12.2325 82.8119 12.2325 82.7838 12.2325C82.7838 12.6262 82.7838 13.1323 82.8119 13.7509H81.9402C81.9683 13.1604 81.9683 12.4575 81.9683 11.642C81.9683 10.9109 81.9683 10.2641 81.9402 9.72986H82.4745C82.5588 9.72986 82.6994 9.72986 82.9244 9.72986C83.1493 9.72986 83.318 9.72986 83.4868 9.72986C83.8804 9.72986 84.2179 9.81422 84.4709 9.98293C84.724 10.1798 84.8646 10.461 84.8646 10.7984ZM84.0491 10.9671C84.0491 10.5172 83.768 10.3204 83.1774 10.3204C83.0368 10.3204 82.8681 10.3485 82.7275 10.3766C82.7557 10.7703 82.7556 11.1921 82.7556 11.6982C82.8119 11.6982 82.8681 11.6982 82.9244 11.6982C83.6836 11.6982 84.0491 11.4451 84.0491 10.9671Z" fill="#F9F9FA"/>
<path d="M90.8827 11.6979C90.8827 12.3166 90.6859 12.8508 90.2922 13.2726C89.8985 13.6944 89.4205 13.8913 88.8581 13.8913C88.3238 13.8913 87.8739 13.6944 87.5084 13.3289C87.1428 12.9352 86.946 12.4572 86.946 11.8667C86.946 11.248 87.1428 10.7138 87.5365 10.292C87.9302 9.87018 88.4082 9.67334 88.9706 9.67334C89.5049 9.67334 89.9548 9.87018 90.3203 10.2357C90.714 10.6294 90.8827 11.1074 90.8827 11.6979ZM90.0391 11.7823C90.0391 11.3605 89.9266 10.995 89.7017 10.7419C89.4767 10.4888 89.2237 10.3482 88.8862 10.3482C88.5769 10.3482 88.3238 10.4888 88.127 10.7419C87.9302 11.0231 87.8177 11.3605 87.8177 11.7542C87.8177 12.176 87.9302 12.5415 88.1551 12.7946C88.3801 13.0758 88.6331 13.1883 88.9706 13.1883C89.2799 13.1883 89.533 13.0477 89.7298 12.7946C89.9267 12.5415 90.0391 12.176 90.0391 11.7823Z" fill="#F9F9FA"/>
<path d="M95.0721 13.7791H94.3129C94.3129 13.6947 94.0317 13.2448 93.4693 12.4575C92.8788 11.6139 92.5413 11.0234 92.457 10.714H92.4007C92.457 11.164 92.4851 11.5576 92.4851 11.9232C92.4851 12.4293 92.5132 13.048 92.5413 13.7791H91.7821C91.8102 13.1323 91.8383 12.4293 91.8383 11.6701C91.8383 10.9109 91.8102 10.2922 91.7821 9.75798H92.7101C92.7101 9.87046 92.9631 10.2922 93.4693 11.0515C94.0035 11.8669 94.3129 12.4012 94.3972 12.6824H94.4535C94.3972 12.2325 94.3691 11.8107 94.3691 11.4451C94.3691 10.8828 94.341 10.3204 94.3129 9.72986H95.0721C95.044 10.236 95.0158 10.8828 95.0158 11.642C95.0158 12.4575 95.044 13.1323 95.0721 13.7791Z" fill="#F9F9FA"/>
<defs>
<linearGradient id="paint0_linear" x1="19.1971" y1="9.23884" x2="19.1971" y2="41.7362" gradientUnits="userSpaceOnUse">
<stop stop-color="#257CB0"/>
<stop offset="0.2863" stop-color="#4A93B5"/>
<stop offset="0.767" stop-color="#78BCBB"/>
<stop offset="1" stop-color="#89CFBD"/>
</linearGradient>
<linearGradient id="paint1_linear" x1="11.0036" y1="17.3041" x2="31.7921" y2="17.3041" gradientUnits="userSpaceOnUse">
<stop stop-color="#52C1AD"/>
<stop offset="1" stop-color="#DEE89A"/>
</linearGradient>
<linearGradient id="paint2_linear" x1="21.3977" y1="25.4877" x2="21.3977" y2="41.8542" gradientUnits="userSpaceOnUse">
<stop stop-color="#EC413D"/>
<stop offset="0.1668" stop-color="#DA4452"/>
<stop offset="0.5748" stop-color="#B0487A"/>
<stop offset="0.8619" stop-color="#954A92"/>
<stop offset="1" stop-color="#8A4A9D"/>
</linearGradient>
<linearGradient id="paint3_linear" x1="33.3713" y1="21.1233" x2="33.3713" y2="29.8517" gradientUnits="userSpaceOnUse">
<stop stop-color="#F58879"/>
<stop offset="0.1194" stop-color="#F69079"/>
<stop offset="0.7128" stop-color="#FCB877"/>
<stop offset="1" stop-color="#FEC874"/>
</linearGradient>
</defs>
</svg>
